<svg width="136" height="20" viewBox="0 0 136 20" fill="none" xmlns="http://www.w3.org/2000/svg">
    <g id="text-wrapper-ru">
        <path d="M1.39606 3.528H5.30006C6.66539 3.528 7.70539 3.74133 8.42006 4.168C9.13472 4.59467 9.49206 5.31467 9.49206 6.328C9.49206 6.744 9.43339 7.10667 9.31606 7.416C9.19872 7.71467 9.02806 7.976 8.80406 8.2C8.59072 8.41333 8.32939 8.58933 8.02006 8.728C7.71072 8.86667 7.36939 8.97334 6.99606 9.048C7.95606 9.16534 8.68139 9.42667 9.17206 9.832C9.66272 10.2373 9.90806 10.856 9.90806 11.688C9.90806 12.2853 9.79072 12.7973 9.55606 13.224C9.32139 13.64 8.99606 13.9813 8.58006 14.248C8.16406 14.504 7.67339 14.696 7.10806 14.824C6.54272 14.9413 5.92939 15 5.26806 15H1.39606V3.528ZM3.33206 5.208V8.264H5.39606C6.03606 8.264 6.55339 8.13067 6.94806 7.864C7.34272 7.58667 7.54006 7.15467 7.54006 6.568C7.54006 6.03467 7.35872 5.67733 6.99606 5.496C6.64406 5.304 6.14272 5.208 5.49206 5.208H3.33206ZM3.33206 9.928V13.336H5.46006C5.82272 13.336 6.15339 13.3093 6.45206 13.256C6.75072 13.192 7.00672 13.096 7.22006 12.968C7.43339 12.8293 7.59872 12.6533 7.71606 12.44C7.83339 12.216 7.89206 11.944 7.89206 11.624C7.89206 10.9947 7.68406 10.5573 7.26806 10.312C6.86272 10.056 6.20672 9.928 5.30006 9.928H3.33206Z"
              fill="white"/>
        <path d="M15.2728 15.16C14.6861 15.16 14.1421 15.064 13.6408 14.872C13.1395 14.68 12.7021 14.4027 12.3288 14.04C11.9661 13.6667 11.6781 13.2133 11.4648 12.68C11.2621 12.1467 11.1608 11.5333 11.1608 10.84C11.1608 10.1467 11.2621 9.53334 11.4648 9C11.6781 8.46667 11.9661 8.01867 12.3288 7.656C12.7021 7.28267 13.1395 7.00533 13.6408 6.824C14.1421 6.632 14.6861 6.536 15.2728 6.536C15.8595 6.536 16.4035 6.632 16.9048 6.824C17.4061 7.00533 17.8435 7.28267 18.2168 7.656C18.5901 8.01867 18.8835 8.46667 19.0968 9C19.3101 9.53334 19.4168 10.1467 19.4168 10.84C19.4168 11.5333 19.3101 12.1467 19.0968 12.68C18.8835 13.2133 18.5901 13.6667 18.2168 14.04C17.8435 14.4027 17.4061 14.68 16.9048 14.872C16.4035 15.064 15.8595 15.16 15.2728 15.16ZM15.2728 13.608C15.9128 13.608 16.4408 13.384 16.8568 12.936C17.2835 12.488 17.4968 11.7893 17.4968 10.84C17.4968 9.90134 17.2835 9.208 16.8568 8.76C16.4408 8.30134 15.9128 8.072 15.2728 8.072C14.6435 8.072 14.1155 8.30134 13.6888 8.76C13.2728 9.208 13.0648 9.90134 13.0648 10.84C13.0648 11.7893 13.2728 12.488 13.6888 12.936C14.1155 13.384 14.6435 13.608 15.2728 13.608Z"
              fill="white"/>
        <path d="M24.7137 5.704C24.2657 5.704 23.8764 5.64533 23.5457 5.528C23.2257 5.41067 22.9537 5.25067 22.7297 5.048C22.5163 4.83467 22.3563 4.58933 22.2497 4.312C22.143 4.024 22.0897 3.72 22.0897 3.4H23.7217C23.7217 3.77333 23.807 4.04533 23.9777 4.216C24.159 4.376 24.4043 4.456 24.7137 4.456C25.023 4.456 25.263 4.376 25.4337 4.216C25.6043 4.04533 25.6897 3.77333 25.6897 3.4H27.3377C27.3377 3.72 27.2843 4.024 27.1777 4.312C27.071 4.58933 26.9057 4.83467 26.6817 5.048C26.4683 5.25067 26.1964 5.41067 25.8657 5.528C25.535 5.64533 25.151 5.704 24.7137 5.704ZM22.8097 12.488L26.6497 6.696H28.4737V15H26.6337V9.24L22.8257 15H20.9697V6.696H22.8097V12.488Z"
              fill="white"/>
        <path d="M34.2754 8.2V15H32.4194V8.2H29.9074V6.696H36.8354V8.2H34.2754Z"
              fill="white"/>
        <path d="M40.0909 12.488L43.9309 6.696H45.7549V15H43.9149V9.24L40.1069 15H38.2509V6.696H40.0909V12.488Z"
              fill="white"/>
        <path d="M55.1843 15.16C54.5123 15.16 53.9096 15.064 53.3763 14.872C52.843 14.6693 52.3896 14.3867 52.0163 14.024C51.643 13.6507 51.355 13.1973 51.1523 12.664C50.9496 12.1307 50.8483 11.5227 50.8483 10.84C50.8483 10.168 50.9496 9.56533 51.1523 9.032C51.355 8.49867 51.643 8.05067 52.0163 7.688C52.3896 7.31467 52.8483 7.032 53.3923 6.84C53.9363 6.63733 54.5443 6.536 55.2163 6.536C55.7923 6.536 56.2936 6.6 56.7203 6.728C57.1576 6.856 57.5043 7.016 57.7603 7.208V8.744C57.4296 8.53067 57.067 8.36533 56.6723 8.248C56.2883 8.13067 55.8403 8.072 55.3283 8.072C53.611 8.072 52.7523 8.99467 52.7523 10.84C52.7523 12.6853 53.595 13.608 55.2803 13.608C55.8243 13.608 56.2883 13.5493 56.6723 13.432C57.067 13.304 57.4296 13.144 57.7603 12.952V14.488C57.483 14.6693 57.1363 14.8293 56.7203 14.968C56.3043 15.096 55.7923 15.16 55.1843 15.16Z"
              fill="white"/>
        <path d="M63.0973 7.128C63.0973 6.52 63.204 5.992 63.4173 5.544C63.6306 5.08534 63.9293 4.712 64.3133 4.424C64.6973 4.12534 65.156 3.90134 65.6893 3.752C66.2333 3.60267 66.836 3.528 67.4973 3.528H71.2253V15H69.2733V10.584H67.4973L64.5693 15H62.3133L65.5453 10.296C64.7133 10.0933 64.0946 9.72533 63.6893 9.192C63.2946 8.648 63.0973 7.96 63.0973 7.128ZM69.2733 8.968V5.208H67.4813C66.756 5.208 66.1746 5.352 65.7373 5.64C65.3106 5.91733 65.0973 6.39733 65.0973 7.08C65.0973 7.752 65.2893 8.23733 65.6733 8.536C66.0573 8.824 66.6013 8.968 67.3053 8.968H69.2733Z"
              fill="white"/>
        <path d="M78.8453 11.496H75.3413V15H73.4853V6.696H75.3413V9.992H78.8453V6.696H80.7013V15H78.8453V11.496Z"
              fill="white"/>
        <path d="M82.5582 13.496C82.8035 13.2827 82.9955 12.9893 83.1342 12.616C83.2835 12.2427 83.4008 11.7787 83.4862 11.224C83.5715 10.6587 83.6355 10.0027 83.6782 9.256C83.7208 8.50934 83.7582 7.656 83.7902 6.696H89.8702V13.496H91.1182V17.368H89.5022L89.3582 15H83.6302L83.4862 17.368H81.8542V13.496H82.5582ZM88.0142 13.496V8.2H85.3902C85.3368 9.512 85.2462 10.6 85.1182 11.464C85.0008 12.3173 84.8035 12.9947 84.5262 13.496H88.0142Z"
              fill="white"/>
        <path d="M99.2731 14.392C99.1557 14.4667 99.0117 14.552 98.8411 14.648C98.6704 14.7333 98.4677 14.8133 98.2331 14.888C97.9984 14.9627 97.7264 15.0267 97.4171 15.08C97.1077 15.1333 96.7557 15.16 96.3611 15.16C94.8357 15.16 93.6944 14.7813 92.9371 14.024C92.1904 13.2667 91.8171 12.2053 91.8171 10.84C91.8171 10.168 91.9184 9.56533 92.1211 9.032C92.3237 8.49867 92.6064 8.05067 92.9691 7.688C93.3317 7.31467 93.7637 7.032 94.2651 6.84C94.7664 6.63733 95.3157 6.536 95.9131 6.536C96.5317 6.536 97.0864 6.63733 97.5771 6.84C98.0784 7.04267 98.4891 7.34667 98.8091 7.752C99.1291 8.15733 99.3477 8.65867 99.4651 9.256C99.5931 9.85333 99.5984 10.552 99.4811 11.352H93.7371C93.8117 12.1093 94.0624 12.68 94.4891 13.064C94.9157 13.4373 95.5824 13.624 96.4891 13.624C97.1504 13.624 97.6997 13.544 98.1371 13.384C98.5851 13.2133 98.9637 13.0373 99.2731 12.856V14.392ZM95.9131 8.008C95.3691 8.008 94.9104 8.17334 94.5371 8.504C94.1637 8.83467 93.9184 9.32534 93.8011 9.976H97.7051C97.7264 9.304 97.5771 8.808 97.2571 8.488C96.9371 8.168 96.4891 8.008 95.9131 8.008Z"
              fill="white"/>
        <path d="M103.78 11.624H103.06V15H101.204V6.696H103.06V10.12H103.844L106.484 6.696H108.436L105.3 10.696L108.564 15H106.372L103.78 11.624Z"
              fill="white"/>
        <path d="M113.231 15.16C112.559 15.16 111.957 15.064 111.423 14.872C110.89 14.6693 110.437 14.3867 110.063 14.024C109.69 13.6507 109.402 13.1973 109.199 12.664C108.997 12.1307 108.895 11.5227 108.895 10.84C108.895 10.168 108.997 9.56533 109.199 9.032C109.402 8.49867 109.69 8.05067 110.063 7.688C110.437 7.31467 110.895 7.032 111.439 6.84C111.983 6.63733 112.591 6.536 113.263 6.536C113.839 6.536 114.341 6.6 114.767 6.728C115.205 6.856 115.551 7.016 115.807 7.208V8.744C115.477 8.53067 115.114 8.36533 114.719 8.248C114.335 8.13067 113.887 8.072 113.375 8.072C111.658 8.072 110.799 8.99467 110.799 10.84C110.799 12.6853 111.642 13.608 113.327 13.608C113.871 13.608 114.335 13.5493 114.719 13.432C115.114 13.304 115.477 13.144 115.807 12.952V14.488C115.53 14.6693 115.183 14.8293 114.767 14.968C114.351 15.096 113.839 15.16 113.231 15.16Z"
              fill="white"/>
        <path d="M123.16 3.528V15H121.224V3.528H123.16Z"
              fill="white"/>
        <path d="M125.615 3.528H129.487C130.297 3.528 131.049 3.61867 131.743 3.8C132.447 3.98133 133.055 4.28 133.567 4.696C134.089 5.112 134.495 5.66133 134.783 6.344C135.081 7.02667 135.231 7.86933 135.231 8.872C135.231 9.88533 135.081 10.776 134.783 11.544C134.495 12.3013 134.084 12.936 133.551 13.448C133.028 13.96 132.404 14.3493 131.679 14.616C130.964 14.872 130.18 15 129.327 15H125.615V3.528ZM127.551 5.208V13.336H129.391C129.956 13.336 130.468 13.2507 130.927 13.08C131.396 12.9093 131.796 12.648 132.127 12.296C132.468 11.944 132.729 11.496 132.911 10.952C133.103 10.3973 133.199 9.74133 133.199 8.984C133.199 8.23733 133.108 7.624 132.927 7.144C132.745 6.65334 132.489 6.264 132.159 5.976C131.839 5.688 131.455 5.49067 131.007 5.384C130.559 5.26667 130.073 5.208 129.551 5.208H127.551Z"
              fill="white"/>
    </g>
</svg>
