<svg width="162" height="20" viewBox="0 0 162 20" fill="none" xmlns="http://www.w3.org/2000/svg">
    <g id="text-wrapper-en">
        <path d="M4.49601 15.16C4.00535 15.16 3.56268 15.128 3.16801 15.064C2.77335 15 2.42135 14.9147 2.11201 14.808C1.80268 14.7014 1.53601 14.584 1.31201 14.456C1.08801 14.328 0.901348 14.2054 0.752014 14.088V12.376C0.912014 12.504 1.12001 12.6374 1.37601 12.776C1.64268 12.904 1.93601 13.0214 2.25601 13.128C2.58668 13.2347 2.93868 13.3254 3.31201 13.4C3.68535 13.464 4.06935 13.496 4.46401 13.496C5.23201 13.496 5.84535 13.3734 6.30401 13.128C6.76268 12.8827 6.99201 12.4774 6.99201 11.912C6.99201 11.6134 6.93335 11.368 6.81601 11.176C6.69868 10.984 6.52801 10.824 6.30401 10.696C6.09068 10.5574 5.82401 10.4454 5.50401 10.36C5.18401 10.264 4.82668 10.168 4.43201 10.072C3.99468 9.96538 3.55735 9.83738 3.12001 9.68804C2.68268 9.53871 2.28801 9.34138 1.93601 9.09604C1.59468 8.84004 1.31201 8.52004 1.08801 8.13604C0.874681 7.74138 0.768014 7.24538 0.768014 6.64804C0.768014 5.59204 1.14668 4.78671 1.90401 4.23204C2.66135 3.66671 3.74935 3.38404 5.16801 3.38404C5.58401 3.38404 5.95201 3.41071 6.27201 3.46404C6.59201 3.50671 6.88001 3.56538 7.13601 3.64004C7.39201 3.70404 7.61068 3.77871 7.79201 3.86404C7.98401 3.93871 8.14935 4.01338 8.28801 4.08804V5.80004C7.52001 5.29871 6.49601 5.04804 5.21601 5.04804C4.32001 5.04804 3.67468 5.18138 3.28001 5.44804C2.89601 5.70404 2.70401 6.06138 2.70401 6.52004C2.70401 6.80804 2.76801 7.04804 2.89601 7.24004C3.02401 7.42138 3.20001 7.57604 3.42401 7.70404C3.64801 7.82138 3.90401 7.92271 4.19201 8.00804C4.48001 8.08271 4.78401 8.15738 5.10401 8.23204C5.55201 8.33871 6.00535 8.46138 6.46401 8.60004C6.92268 8.73871 7.33335 8.93604 7.69601 9.19204C8.06935 9.43738 8.37335 9.76271 8.60802 10.168C8.84268 10.5627 8.96001 11.08 8.96001 11.72C8.96001 12.3814 8.83201 12.9307 8.57601 13.368C8.33068 13.8054 8.00001 14.1574 7.58401 14.424C7.16802 14.6907 6.69335 14.8827 6.16001 15C5.62668 15.1067 5.07201 15.16 4.49601 15.16Z"
              fill="white"/>
        <path d="M11.4371 5.64004C11.0958 5.64004 10.8131 5.52804 10.5891 5.30404C10.3758 5.08004 10.2691 4.81338 10.2691 4.50404C10.2691 4.19471 10.3758 3.92804 10.5891 3.70404C10.8131 3.48004 11.0958 3.36804 11.4371 3.36804C11.7678 3.36804 12.0398 3.48004 12.2531 3.70404C12.4771 3.92804 12.5891 4.19471 12.5891 4.50404C12.5891 4.81338 12.4771 5.08004 12.2531 5.30404C12.0398 5.52804 11.7678 5.64004 11.4371 5.64004ZM12.3651 6.69604V15H10.5091V6.69604H12.3651Z"
              fill="white"/>
        <path d="M22.0303 13.928C22.0303 14.536 21.9449 15.08 21.7743 15.56C21.6143 16.0507 21.3529 16.4667 20.9903 16.808C20.6276 17.1494 20.1583 17.4107 19.5823 17.592C19.0169 17.7734 18.3289 17.864 17.5183 17.864C17.0916 17.864 16.7183 17.8374 16.3983 17.784C16.0783 17.7414 15.8009 17.6827 15.5663 17.608C15.3316 17.544 15.1289 17.4694 14.9583 17.384C14.7983 17.3094 14.6596 17.2347 14.5423 17.16V15.624C14.7023 15.72 14.8729 15.8107 15.0543 15.896C15.2463 15.9814 15.4596 16.056 15.6943 16.12C15.9396 16.184 16.2116 16.232 16.5103 16.264C16.8089 16.3067 17.1503 16.328 17.5343 16.328C18.4516 16.328 19.1183 16.1574 19.5343 15.816C19.9609 15.4747 20.1743 14.8667 20.1743 13.992V13.16C19.9183 13.6187 19.5769 13.9867 19.1503 14.264C18.7236 14.5307 18.1956 14.664 17.5663 14.664C17.0863 14.664 16.6223 14.5787 16.1743 14.408C15.7369 14.2374 15.3476 13.9867 15.0063 13.656C14.6756 13.3147 14.4089 12.8934 14.2063 12.392C14.0143 11.88 13.9183 11.288 13.9183 10.616C13.9183 9.93338 14.0143 9.34138 14.2063 8.84004C14.4089 8.32804 14.6756 7.90138 15.0063 7.56004C15.3476 7.21871 15.7423 6.96271 16.1903 6.79204C16.6383 6.62138 17.1076 6.53604 17.5983 6.53604C18.2383 6.53604 18.7769 6.67471 19.2143 6.95204C19.6516 7.21871 20.0036 7.59204 20.2703 8.07204V8.02404C20.2703 7.83204 20.2809 7.60271 20.3023 7.33604C20.3343 7.05871 20.3663 6.84538 20.3983 6.69604H22.1103C22.0889 6.84538 22.0676 7.05871 22.0463 7.33604C22.0356 7.61338 22.0303 7.84271 22.0303 8.02404V13.928ZM18.0303 13.112C18.6596 13.112 19.1769 12.9094 19.5823 12.504C19.9876 12.088 20.1903 11.4587 20.1903 10.616C20.1903 9.76271 19.9823 9.12804 19.5663 8.71204C19.1609 8.28538 18.6436 8.07204 18.0143 8.07204C17.7049 8.07204 17.4169 8.12538 17.1503 8.23204C16.8836 8.33871 16.6489 8.49871 16.4463 8.71204C16.2543 8.92538 16.0996 9.19204 15.9823 9.51204C15.8756 9.82138 15.8223 10.1894 15.8223 10.616C15.8223 11.448 16.0303 12.072 16.4463 12.488C16.8623 12.904 17.3903 13.112 18.0303 13.112Z"
              fill="white"/>
        <path d="M28.2134 8.07204C27.6694 8.07204 27.2214 8.18938 26.8694 8.42404C26.5174 8.64804 26.2294 8.94138 26.0054 9.30404V15H24.1494V6.69604H25.9094L25.9734 8.05604H26.0054C26.2294 7.61871 26.5654 7.25604 27.0134 6.96804C27.4721 6.68004 28.0534 6.53604 28.7574 6.53604C29.5681 6.53604 30.2294 6.75471 30.7414 7.19204C31.2641 7.62938 31.5254 8.29604 31.5254 9.19204V15H29.6534V9.38404C29.6534 8.90404 29.5254 8.56804 29.2694 8.37604C29.0134 8.17338 28.6614 8.07204 28.2134 8.07204Z"
              fill="white"/>
        <path d="M37.9684 5.64004C37.6271 5.64004 37.3444 5.52804 37.1204 5.30404C36.9071 5.08004 36.8004 4.81338 36.8004 4.50404C36.8004 4.19471 36.9071 3.92804 37.1204 3.70404C37.3444 3.48004 37.6271 3.36804 37.9684 3.36804C38.2991 3.36804 38.5711 3.48004 38.7844 3.70404C39.0084 3.92804 39.1204 4.19471 39.1204 4.50404C39.1204 4.81338 39.0084 5.08004 38.7844 5.30404C38.5711 5.52804 38.2991 5.64004 37.9684 5.64004ZM38.8964 6.69604V15H37.0404V6.69604H38.8964Z"
              fill="white"/>
        <path d="M45.0415 8.07204C44.4975 8.07204 44.0495 8.18938 43.6975 8.42404C43.3455 8.64804 43.0575 8.94138 42.8335 9.30404V15H40.9775V6.69604H42.7375L42.8015 8.05604H42.8335C43.0575 7.61871 43.3935 7.25604 43.8415 6.96804C44.3002 6.68004 44.8815 6.53604 45.5855 6.53604C46.3962 6.53604 47.0575 6.75471 47.5695 7.19204C48.0922 7.62938 48.3535 8.29604 48.3535 9.19204V15H46.4815V9.38404C46.4815 8.90404 46.3535 8.56804 46.0975 8.37604C45.8415 8.17338 45.4895 8.07204 45.0415 8.07204Z"
              fill="white"/>
        <path d="M63.5005 15H60.8445L59.2605 9.03204L57.6605 15H55.0365L53.2125 6.69604H55.1165L56.5245 13.512L58.3965 6.69604H60.3325L62.1565 13.464L63.5645 6.69604H65.3245L63.5005 15Z"
              fill="white"/>
        <path d="M67.7028 5.64004C67.3614 5.64004 67.0788 5.52804 66.8548 5.30404C66.6414 5.08004 66.5348 4.81338 66.5348 4.50404C66.5348 4.19471 66.6414 3.92804 66.8548 3.70404C67.0788 3.48004 67.3614 3.36804 67.7028 3.36804C68.0334 3.36804 68.3054 3.48004 68.5188 3.70404C68.7428 3.92804 68.8548 4.19471 68.8548 4.50404C68.8548 4.81338 68.7428 5.08004 68.5188 5.30404C68.3054 5.52804 68.0334 5.64004 67.7028 5.64004ZM68.6308 6.69604V15H66.7748V6.69604H68.6308Z"
              fill="white"/>
        <path d="M75.1759 14.744C74.9839 14.8614 74.7439 14.9574 74.4559 15.032C74.1679 15.1174 73.8372 15.16 73.4639 15.16C73.0159 15.16 72.6372 15.1014 72.3279 14.984C72.0292 14.856 71.7839 14.6854 71.5919 14.472C71.3999 14.2587 71.2612 14.0134 71.1759 13.736C71.0906 13.448 71.0479 13.144 71.0479 12.824V8.20004H70.0559V6.69604H71.0479V4.95204H72.9039V6.69604H75.2879V8.20004H72.9039V12.616C72.9039 12.9574 72.9839 13.208 73.1439 13.368C73.3146 13.528 73.5919 13.608 73.9759 13.608C74.2319 13.608 74.4559 13.5707 74.6479 13.496C74.8399 13.4214 75.0159 13.32 75.1759 13.192V14.744Z"
              fill="white"/>
        <path d="M80.9634 8.07204C80.4194 8.07204 79.9714 8.18938 79.6194 8.42404C79.2674 8.64804 78.9794 8.94138 78.7554 9.30404V15H76.8994V3.52804H78.7554V6.60004L78.7394 8.05604H78.7554C78.9901 7.62938 79.3314 7.27204 79.7794 6.98404C80.2274 6.68538 80.8034 6.53604 81.5074 6.53604C82.3181 6.53604 82.9794 6.75471 83.4914 7.19204C84.0141 7.62938 84.2754 8.29604 84.2754 9.19204V15H82.4034V9.38404C82.4034 8.90404 82.2754 8.56804 82.0194 8.37604C81.7634 8.17338 81.4114 8.07204 80.9634 8.07204Z"
              fill="white"/>
        <path d="M94.6704 10.12V15H92.7184V10.136L88.8944 3.52804H91.0704L93.8064 8.45604L96.5904 3.52804H98.4624L94.6704 10.12Z"
              fill="white"/>
        <path d="M103.574 13.544C103.489 13.736 103.371 13.928 103.222 14.12C103.083 14.312 102.907 14.488 102.694 14.648C102.491 14.7974 102.246 14.92 101.958 15.016C101.67 15.112 101.334 15.16 100.95 15.16C100.587 15.16 100.251 15.1067 99.942 15C99.6327 14.904 99.3607 14.7547 99.126 14.552C98.902 14.3494 98.7207 14.0987 98.582 13.8C98.454 13.4907 98.39 13.1387 98.39 12.744C98.39 11.8374 98.726 11.16 99.398 10.712C100.07 10.2534 101.019 10.024 102.246 10.024H103.51V9.51204C103.51 8.96804 103.371 8.59471 103.094 8.39204C102.817 8.17871 102.358 8.07204 101.718 8.07204C101.174 8.07204 100.662 8.15204 100.182 8.31204C99.7127 8.46138 99.2967 8.63738 98.934 8.84004V7.28804C99.2647 7.10671 99.702 6.93604 100.246 6.77604C100.79 6.61604 101.382 6.53604 102.022 6.53604C103.089 6.53604 103.91 6.76004 104.486 7.20804C105.073 7.64538 105.366 8.34938 105.366 9.32004V13.656C105.366 13.752 105.366 13.864 105.366 13.992C105.377 14.1094 105.382 14.232 105.382 14.36C105.393 14.488 105.403 14.6107 105.414 14.728C105.425 14.8347 105.435 14.9254 105.446 15H103.734C103.702 14.8507 103.67 14.6427 103.638 14.376C103.617 14.1094 103.601 13.8694 103.59 13.656L103.574 13.544ZM101.462 13.72C101.857 13.72 102.182 13.64 102.438 13.48C102.705 13.3094 102.918 13.1174 103.078 12.904C103.238 12.68 103.35 12.4614 103.414 12.248C103.478 12.0347 103.51 11.8854 103.51 11.8V11.24H102.358C101.622 11.24 101.083 11.3574 100.742 11.592C100.401 11.816 100.23 12.136 100.23 12.552C100.23 12.9147 100.331 13.2027 100.534 13.416C100.747 13.6187 101.057 13.72 101.462 13.72Z"
              fill="white"/>
        <path d="M111.432 8.07204C110.888 8.07204 110.44 8.18938 110.088 8.42404C109.736 8.64804 109.448 8.94138 109.224 9.30404V15H107.368V6.69604H109.128L109.192 8.05604H109.224C109.448 7.61871 109.784 7.25604 110.232 6.96804C110.691 6.68004 111.272 6.53604 111.976 6.53604C112.787 6.53604 113.448 6.75471 113.96 7.19204C114.483 7.62938 114.744 8.29604 114.744 9.19204V15H112.872V9.38404C112.872 8.90404 112.744 8.56804 112.488 8.37604C112.232 8.17338 111.88 8.07204 111.432 8.07204Z"
              fill="white"/>
        <path d="M122.68 13.448C122.413 13.9707 122.056 14.3867 121.608 14.696C121.16 15.0054 120.6 15.16 119.928 15.16C119.437 15.16 118.968 15.0747 118.52 14.904C118.072 14.7227 117.677 14.456 117.336 14.104C116.994 13.7414 116.722 13.2934 116.52 12.76C116.317 12.216 116.216 11.576 116.216 10.84C116.216 10.1147 116.317 9.48538 116.52 8.95204C116.722 8.40804 116.994 7.96004 117.336 7.60804C117.688 7.24538 118.088 6.97871 118.536 6.80804C118.984 6.62671 119.453 6.53604 119.944 6.53604C120.562 6.53604 121.09 6.65871 121.528 6.90404C121.976 7.14938 122.338 7.49604 122.616 7.94404V3.52804H124.456V15H122.776L122.68 13.448ZM120.36 13.608C120.68 13.608 120.973 13.5547 121.24 13.448C121.517 13.3307 121.757 13.16 121.96 12.936C122.173 12.7014 122.338 12.4134 122.456 12.072C122.573 11.72 122.632 11.3094 122.632 10.84C122.632 10.3707 122.573 9.96538 122.456 9.62404C122.338 9.27204 122.178 8.98404 121.976 8.76004C121.773 8.52538 121.533 8.35471 121.256 8.24804C120.978 8.13071 120.68 8.07204 120.36 8.07204C119.709 8.07204 119.17 8.30671 118.744 8.77604C118.328 9.24538 118.12 9.93338 118.12 10.84C118.12 11.768 118.328 12.4614 118.744 12.92C119.16 13.3787 119.698 13.608 120.36 13.608Z"
              fill="white"/>
        <path d="M133.5 14.392C133.382 14.4667 133.238 14.552 133.068 14.648C132.897 14.7334 132.694 14.8134 132.46 14.888C132.225 14.9627 131.953 15.0267 131.644 15.08C131.334 15.1334 130.982 15.16 130.588 15.16C129.062 15.16 127.921 14.7814 127.164 14.024C126.417 13.2667 126.044 12.2054 126.044 10.84C126.044 10.168 126.145 9.56538 126.348 9.03204C126.55 8.49871 126.833 8.05071 127.196 7.68804C127.558 7.31471 127.99 7.03204 128.492 6.84004C128.993 6.63738 129.542 6.53604 130.14 6.53604C130.758 6.53604 131.313 6.63738 131.804 6.84004C132.305 7.04271 132.716 7.34671 133.036 7.75204C133.356 8.15738 133.574 8.65871 133.692 9.25604C133.82 9.85338 133.825 10.552 133.708 11.352H127.964C128.038 12.1094 128.289 12.68 128.716 13.064C129.142 13.4374 129.809 13.624 130.716 13.624C131.377 13.624 131.926 13.544 132.364 13.384C132.812 13.2134 133.19 13.0374 133.5 12.856V14.392ZM130.14 8.00804C129.596 8.00804 129.137 8.17338 128.764 8.50404C128.39 8.83471 128.145 9.32538 128.028 9.97604H131.932C131.953 9.30404 131.804 8.80804 131.484 8.48804C131.164 8.16804 130.716 8.00804 130.14 8.00804Z"
              fill="white"/>
        <path d="M138.156 11.944L136.14 15H134.316L137.244 10.68L134.604 6.69604H136.716L138.54 9.43204L140.316 6.69604H142.14L139.452 10.712L142.3 15H140.188L138.156 11.944Z"
              fill="white"/>
        <path d="M149.137 3.52804V15H147.201V3.52804H149.137Z"
              fill="white"/>
        <path d="M151.591 3.52804H155.463C156.274 3.52804 157.026 3.61871 157.719 3.80004C158.423 3.98138 159.031 4.28004 159.543 4.69604C160.066 5.11204 160.471 5.66138 160.759 6.34404C161.058 7.02671 161.207 7.86938 161.207 8.87204C161.207 9.88538 161.058 10.776 160.759 11.544C160.471 12.3014 160.061 12.936 159.527 13.448C159.005 13.96 158.381 14.3494 157.655 14.616C156.941 14.872 156.157 15 155.303 15H151.591V3.52804ZM153.527 5.20804V13.336H155.367C155.933 13.336 156.445 13.2507 156.903 13.08C157.373 12.9094 157.773 12.648 158.103 12.296C158.445 11.944 158.706 11.496 158.887 10.952C159.079 10.3974 159.175 9.74138 159.175 8.98404C159.175 8.23738 159.085 7.62404 158.903 7.14404C158.722 6.65338 158.466 6.26404 158.135 5.97604C157.815 5.68804 157.431 5.49071 156.983 5.38404C156.535 5.26671 156.05 5.20804 155.527 5.20804H153.527Z"
              fill="white"/>
    </g>
</svg>
